<svg width="360" height="84" viewBox="0 0 360 84" fill="none" xmlns="http://www.w3.org/2000/svg">
<mask id="path-1-outside-1_223_61" maskUnits="userSpaceOnUse" x="-0.858643" y="-0.742493" width="361" height="85" fill="black">
<rect fill="white" x="-0.858643" y="-0.742493" width="361" height="85"/>
<path d="M71.7314 36.8075L51.6614 34.3775C51.8414 30.7175 50.8514 27.7775 48.6914 25.5575C46.5914 23.2775 43.7414 22.1375 40.1414 22.1375C33.0614 22.1375 28.8014 28.0175 27.3614 39.7775C27.1214 41.5175 27.0014 43.1375 27.0014 44.6375C27.0014 48.9575 27.7214 52.1975 29.1614 54.3575C30.9014 56.9375 33.8114 58.4675 37.8914 58.9475C38.4914 59.0075 39.0614 59.0375 39.6014 59.0375C44.9414 59.0375 48.4214 55.7975 50.0414 49.3175L70.2914 51.7475C68.4314 59.9675 64.4414 66.1475 58.3214 70.2875C52.2014 74.4275 44.8514 75.9575 36.2714 74.8775C25.7114 73.6175 17.7614 69.5675 12.4214 62.7275C7.08136 55.8275 5.07136 47.0675 6.39136 36.4475C7.65136 26.1875 11.7314 18.2675 18.6314 12.6875C25.4114 7.28751 33.4214 5.15751 42.6614 6.29751C52.3214 7.4975 59.6414 10.7375 64.6214 16.0175C69.6014 21.2975 71.9714 28.2275 71.7314 36.8075ZM123.677 45.2675C124.877 53.5475 123.257 60.2375 118.817 65.3375C113.477 71.6375 105.707 74.7875 95.5068 74.7875C87.1668 74.7875 80.6868 72.0275 76.0668 66.5075C73.2468 63.2075 71.4768 58.9475 70.7568 53.7275C70.5168 52.0475 70.3968 50.4275 70.3968 48.8675C70.3968 40.3475 73.6368 33.8975 80.1168 29.5175C83.8368 26.9375 88.3368 25.2875 93.6168 24.5675C95.4168 24.3275 97.1868 24.2075 98.9268 24.2075C104.927 24.2075 109.997 25.6775 114.137 28.6175C119.477 32.3375 122.657 37.8875 123.677 45.2675ZM105.137 47.8775C104.717 44.8175 103.817 42.2975 102.437 40.3175C100.697 37.7975 98.4468 36.7175 95.6868 37.0775C92.8068 37.4975 90.8268 39.1175 89.7468 41.9375C88.9068 44.2175 88.6968 46.9475 89.1168 50.1275C90.3168 58.6475 93.5868 62.5475 98.9268 61.8275C103.307 61.1675 105.497 57.9275 105.497 52.1075C105.497 50.8475 105.377 49.4375 105.137 47.8775ZM208.535 68.8475L189.905 70.8275L187.385 46.6175C187.025 43.4975 186.485 41.3075 185.765 40.0475C184.685 38.0675 182.795 37.2275 180.095 37.5275C175.715 38.0075 173.885 41.7275 174.605 48.6875L177.125 72.1775L158.495 74.0675L155.975 49.9475C155.615 46.8275 155.075 44.6375 154.355 43.3775C153.275 41.3975 151.385 40.5575 148.685 40.8575C144.305 41.3375 142.475 45.0575 143.195 52.0175L145.715 75.4175L127.085 77.3975L122.135 30.0575L139.145 28.2575L139.955 35.2775C141.575 32.0375 144.245 29.3675 147.965 27.2675C150.425 25.8875 153.365 25.1975 156.785 25.1975C162.965 25.1975 167.435 27.6275 170.195 32.4875C173.615 26.2475 178.685 22.7675 185.405 22.0475C193.925 21.1475 199.685 23.6975 202.685 29.6975C204.125 32.6375 205.085 36.3575 205.565 40.8575L208.535 68.8475ZM290.976 68.8475L272.346 70.8275L269.826 46.6175C269.466 43.4975 268.926 41.3075 268.206 40.0475C267.126 38.0675 265.236 37.2275 262.536 37.5275C258.156 38.0075 256.326 41.7275 257.046 48.6875L259.566 72.1775L240.936 74.0675L238.416 49.9475C238.056 46.8275 237.516 44.6375 236.796 43.3775C235.716 41.3975 233.826 40.5575 231.126 40.8575C226.746 41.3375 224.916 45.0575 225.636 52.0175L228.156 75.4175L209.526 77.3975L204.576 30.0575L221.586 28.2575L222.396 35.2775C224.016 32.0375 226.686 29.3675 230.406 27.2675C232.866 25.8875 235.806 25.1975 239.226 25.1975C245.406 25.1975 249.876 27.6275 252.636 32.4875C256.056 26.2475 261.126 22.7675 267.846 22.0475C276.366 21.1475 282.126 23.6975 285.126 29.6975C286.566 32.6375 287.526 36.3575 288.006 40.8575L290.976 68.8475ZM317.078 9.3575L309.158 74.3375L288.098 71.7275L296.018 6.74751L317.078 9.3575ZM352.541 27.8975L351.19 38.6975L342.28 37.5275L340.12 54.7175C339.94 56.2175 339.94 57.4175 340.12 58.3175C340.42 59.9375 342.13 60.9575 345.251 61.3775L348.22 61.7375L346.6 75.0575C342.94 74.8775 339.4 74.5775 335.98 74.1575C331.9 73.6775 328.9 73.0475 326.98 72.2675C323.62 70.8875 321.67 68.7875 321.13 65.9675C320.89 64.8875 320.77 63.5375 320.77 61.9175C320.77 59.9975 320.95 57.7175 321.31 55.0775L323.65 35.2775L317.08 34.4675L318.43 23.6675L325.27 24.5675L327.07 9.8075L345.431 12.0575L343.63 26.8175L352.541 27.8975Z"/>
</mask>
<path d="M71.7314 36.8075L51.6614 34.3775C51.8414 30.7175 50.8514 27.7775 48.6914 25.5575C46.5914 23.2775 43.7414 22.1375 40.1414 22.1375C33.0614 22.1375 28.8014 28.0175 27.3614 39.7775C27.1214 41.5175 27.0014 43.1375 27.0014 44.6375C27.0014 48.9575 27.7214 52.1975 29.1614 54.3575C30.9014 56.9375 33.8114 58.4675 37.8914 58.9475C38.4914 59.0075 39.0614 59.0375 39.6014 59.0375C44.9414 59.0375 48.4214 55.7975 50.0414 49.3175L70.2914 51.7475C68.4314 59.9675 64.4414 66.1475 58.3214 70.2875C52.2014 74.4275 44.8514 75.9575 36.2714 74.8775C25.7114 73.6175 17.7614 69.5675 12.4214 62.7275C7.08136 55.8275 5.07136 47.0675 6.39136 36.4475C7.65136 26.1875 11.7314 18.2675 18.6314 12.6875C25.4114 7.28751 33.4214 5.15751 42.6614 6.29751C52.3214 7.4975 59.6414 10.7375 64.6214 16.0175C69.6014 21.2975 71.9714 28.2275 71.7314 36.8075ZM123.677 45.2675C124.877 53.5475 123.257 60.2375 118.817 65.3375C113.477 71.6375 105.707 74.7875 95.5068 74.7875C87.1668 74.7875 80.6868 72.0275 76.0668 66.5075C73.2468 63.2075 71.4768 58.9475 70.7568 53.7275C70.5168 52.0475 70.3968 50.4275 70.3968 48.8675C70.3968 40.3475 73.6368 33.8975 80.1168 29.5175C83.8368 26.9375 88.3368 25.2875 93.6168 24.5675C95.4168 24.3275 97.1868 24.2075 98.9268 24.2075C104.927 24.2075 109.997 25.6775 114.137 28.6175C119.477 32.3375 122.657 37.8875 123.677 45.2675ZM105.137 47.8775C104.717 44.8175 103.817 42.2975 102.437 40.3175C100.697 37.7975 98.4468 36.7175 95.6868 37.0775C92.8068 37.4975 90.8268 39.1175 89.7468 41.9375C88.9068 44.2175 88.6968 46.9475 89.1168 50.1275C90.3168 58.6475 93.5868 62.5475 98.9268 61.8275C103.307 61.1675 105.497 57.9275 105.497 52.1075C105.497 50.8475 105.377 49.4375 105.137 47.8775ZM208.535 68.8475L189.905 70.8275L187.385 46.6175C187.025 43.4975 186.485 41.3075 185.765 40.0475C184.685 38.0675 182.795 37.2275 180.095 37.5275C175.715 38.0075 173.885 41.7275 174.605 48.6875L177.125 72.1775L158.495 74.0675L155.975 49.9475C155.615 46.8275 155.075 44.6375 154.355 43.3775C153.275 41.3975 151.385 40.5575 148.685 40.8575C144.305 41.3375 142.475 45.0575 143.195 52.0175L145.715 75.4175L127.085 77.3975L122.135 30.0575L139.145 28.2575L139.955 35.2775C141.575 32.0375 144.245 29.3675 147.965 27.2675C150.425 25.8875 153.365 25.1975 156.785 25.1975C162.965 25.1975 167.435 27.6275 170.195 32.4875C173.615 26.2475 178.685 22.7675 185.405 22.0475C193.925 21.1475 199.685 23.6975 202.685 29.6975C204.125 32.6375 205.085 36.3575 205.565 40.8575L208.535 68.8475ZM290.976 68.8475L272.346 70.8275L269.826 46.6175C269.466 43.4975 268.926 41.3075 268.206 40.0475C267.126 38.0675 265.236 37.2275 262.536 37.5275C258.156 38.0075 256.326 41.7275 257.046 48.6875L259.566 72.1775L240.936 74.0675L238.416 49.9475C238.056 46.8275 237.516 44.6375 236.796 43.3775C235.716 41.3975 233.826 40.5575 231.126 40.8575C226.746 41.3375 224.916 45.0575 225.636 52.0175L228.156 75.4175L209.526 77.3975L204.576 30.0575L221.586 28.2575L222.396 35.2775C224.016 32.0375 226.686 29.3675 230.406 27.2675C232.866 25.8875 235.806 25.1975 239.226 25.1975C245.406 25.1975 249.876 27.6275 252.636 32.4875C256.056 26.2475 261.126 22.7675 267.846 22.0475C276.366 21.1475 282.126 23.6975 285.126 29.6975C286.566 32.6375 287.526 36.3575 288.006 40.8575L290.976 68.8475ZM317.078 9.3575L309.158 74.3375L288.098 71.7275L296.018 6.74751L317.078 9.3575ZM352.541 27.8975L351.19 38.6975L342.28 37.5275L340.12 54.7175C339.94 56.2175 339.94 57.4175 340.12 58.3175C340.42 59.9375 342.13 60.9575 345.251 61.3775L348.22 61.7375L346.6 75.0575C342.94 74.8775 339.4 74.5775 335.98 74.1575C331.9 73.6775 328.9 73.0475 326.98 72.2675C323.62 70.8875 321.67 68.7875 321.13 65.9675C320.89 64.8875 320.77 63.5375 320.77 61.9175C320.77 59.9975 320.95 57.7175 321.31 55.0775L323.65 35.2775L317.08 34.4675L318.43 23.6675L325.27 24.5675L327.07 9.8075L345.431 12.0575L343.63 26.8175L352.541 27.8975Z" fill="white"/>
<path d="M71.7314 36.8075L71.0102 42.764L77.545 43.5552L77.729 36.9753L71.7314 36.8075ZM51.6614 34.3775L45.6686 34.0828L45.3942 39.6625L50.9402 40.334L51.6614 34.3775ZM48.6914 25.5575L44.2781 29.6224L44.3337 29.6828L44.391 29.7416L48.6914 25.5575ZM27.3614 39.7775L33.3051 40.5973L33.3113 40.5521L33.3169 40.5068L27.3614 39.7775ZM29.1614 54.3575L24.1691 57.6857L24.178 57.6991L24.1869 57.7124L29.1614 54.3575ZM37.8914 58.9475L37.1903 64.9064L37.2423 64.9125L37.2943 64.9177L37.8914 58.9475ZM50.0414 49.3175L50.7562 43.3602L45.5036 42.7299L44.2205 47.8623L50.0414 49.3175ZM70.2914 51.7475L76.1434 53.0717L77.6117 46.5829L71.0062 45.7902L70.2914 51.7475ZM58.3214 70.2875L61.6832 75.2572H61.6832L58.3214 70.2875ZM36.2714 74.8775L37.0207 68.9245L37.0015 68.9221L36.9822 68.9198L36.2714 74.8775ZM12.4214 62.7275L7.67637 66.3997L7.68414 66.4098L7.69195 66.4198L12.4214 62.7275ZM6.39136 36.4475L12.3455 37.1876L12.3466 37.1789L6.39136 36.4475ZM18.6314 12.6875L14.8933 7.99419L14.8759 8.00811L14.8585 8.02215L18.6314 12.6875ZM42.6614 6.29751L43.401 0.343269L43.396 0.342659L42.6614 6.29751ZM71.7314 36.8075L72.4526 30.851L52.3825 28.421L51.6614 34.3775L50.9402 40.334L71.0102 42.764L71.7314 36.8075ZM51.6614 34.3775L57.6541 34.6722C57.8996 29.6802 56.5254 25.0053 52.9917 21.3734L48.6914 25.5575L44.391 29.7416C45.1773 30.5497 45.7831 31.7548 45.6686 34.0828L51.6614 34.3775ZM48.6914 25.5575L53.1046 21.4926C49.6822 17.7768 45.1217 16.1375 40.1414 16.1375V22.1375V28.1375C42.361 28.1375 43.5006 28.7782 44.2781 29.6224L48.6914 25.5575ZM40.1414 22.1375V16.1375C34.6204 16.1375 30.0019 18.5768 26.7775 23.0273C23.7879 27.1539 22.1798 32.728 21.4058 39.0483L27.3614 39.7775L33.3169 40.5068C33.983 35.067 35.2249 31.8211 36.4952 30.0677C37.5309 28.6382 38.5823 28.1375 40.1414 28.1375V22.1375ZM27.3614 39.7775L21.4176 38.9577C21.1463 40.9247 21.0014 42.8216 21.0014 44.6375H27.0014H33.0014C33.0014 43.4534 33.0964 42.1103 33.3051 40.5973L27.3614 39.7775ZM27.0014 44.6375H21.0014C21.0014 49.4347 21.7665 54.0818 24.1691 57.6857L29.1614 54.3575L34.1537 51.0293C33.6763 50.3132 33.0014 48.4803 33.0014 44.6375H27.0014ZM29.1614 54.3575L24.1869 57.7124C27.1937 62.1706 31.965 64.2917 37.1903 64.9064L37.8914 58.9475L38.5924 52.9886C35.6578 52.6433 34.6091 51.7044 34.1358 51.0027L29.1614 54.3575ZM37.8914 58.9475L37.2943 64.9177C38.0702 64.9953 38.8406 65.0375 39.6014 65.0375V59.0375V53.0375C39.2822 53.0375 38.9125 53.0197 38.4884 52.9773L37.8914 58.9475ZM39.6014 59.0375V65.0375C43.5868 65.0375 47.3151 63.7824 50.3049 60.9989C53.1727 58.3288 54.8801 54.7012 55.8622 50.7727L50.0414 49.3175L44.2205 47.8623C43.5826 50.4138 42.74 51.6462 42.1278 52.2161C41.6376 52.6726 40.9559 53.0375 39.6014 53.0375V59.0375ZM50.0414 49.3175L49.3265 55.2748L69.5765 57.7048L70.2914 51.7475L71.0062 45.7902L50.7562 43.3602L50.0414 49.3175ZM70.2914 51.7475L64.4393 50.4233C62.8649 57.381 59.6372 62.1535 54.9595 65.3178L58.3214 70.2875L61.6832 75.2572C69.2455 70.1415 73.9978 62.554 76.1434 53.0717L70.2914 51.7475ZM58.3214 70.2875L54.9595 65.3178C50.2461 68.5063 44.4167 69.8554 37.0207 68.9245L36.2714 74.8775L35.522 80.8305C45.286 82.0596 54.1566 80.3488 61.6832 75.2572L58.3214 70.2875ZM36.2714 74.8775L36.9822 68.9198C27.6289 67.8037 21.2932 64.3413 17.1508 59.0353L12.4214 62.7275L7.69195 66.4198C14.2295 74.7937 23.7938 79.4313 35.5605 80.8353L36.2714 74.8775ZM12.4214 62.7275L17.1663 59.0553C13.0071 53.681 11.174 46.6132 12.3455 37.1876L6.39136 36.4475L0.437174 35.7074C-1.03128 47.5218 1.15564 57.974 7.67637 66.3997L12.4214 62.7275ZM6.39136 36.4475L12.3466 37.1789C13.4505 28.1899 16.9131 21.7935 22.4042 17.3529L18.6314 12.6875L14.8585 8.02215C6.54964 14.7415 1.85219 24.1851 0.436097 35.7162L6.39136 36.4475ZM18.6314 12.6875L22.3694 17.3808C27.7884 13.0648 34.155 11.2935 41.9267 12.2524L42.6614 6.29751L43.396 0.342659C32.6878 -0.978493 23.0343 1.51025 14.8933 7.99419L18.6314 12.6875ZM42.6614 6.29751L41.9217 12.2517C50.6705 13.3386 56.5177 16.1703 60.2565 20.1343L64.6214 16.0175L68.9862 11.9007C62.765 5.30471 53.9722 1.65646 43.401 0.343269L42.6614 6.29751ZM64.6214 16.0175L60.2565 20.1343C63.9497 24.05 65.938 29.3361 65.7337 36.6397L71.7314 36.8075L77.729 36.9753C78.0047 27.1189 75.253 18.545 68.9862 11.9007L64.6214 16.0175ZM123.677 45.2675L117.733 46.089L117.736 46.1085L117.739 46.1281L123.677 45.2675ZM118.817 65.3375L114.291 61.3978L114.265 61.4277L114.24 61.4579L118.817 65.3375ZM76.0668 66.5075L80.6679 62.6566L80.6482 62.633L80.6282 62.6096L76.0668 66.5075ZM70.7568 53.7275L76.7006 52.9077L76.6986 52.8933L76.6965 52.879L70.7568 53.7275ZM80.1168 29.5175L83.4768 34.4885L83.5066 34.4683L83.5362 34.4478L80.1168 29.5175ZM93.6168 24.5675L92.8238 18.6201L92.815 18.6213L92.8062 18.6225L93.6168 24.5675ZM114.137 28.6175L110.663 33.5095L110.685 33.5252L110.707 33.5407L114.137 28.6175ZM105.137 47.8775L99.1926 48.6934L99.1992 48.7417L99.2066 48.7898L105.137 47.8775ZM102.437 40.3175L97.4995 43.7267L97.5069 43.7375L97.5144 43.7483L102.437 40.3175ZM95.6868 37.0775L94.9108 31.1279L94.8658 31.1338L94.821 31.1403L95.6868 37.0775ZM89.7468 41.9375L84.1437 39.7916L84.13 39.8274L84.1168 39.8633L89.7468 41.9375ZM89.1168 50.1275L83.1685 50.9131L83.1719 50.9387L83.1755 50.9643L89.1168 50.1275ZM98.9268 61.8275L99.7286 67.7737L99.7748 67.7675L99.8208 67.7605L98.9268 61.8275ZM123.677 45.2675L117.739 46.1281C118.753 53.1244 117.318 57.9214 114.291 61.3978L118.817 65.3375L123.342 69.2772C129.196 62.5536 131.001 53.9706 129.615 44.4069L123.677 45.2675ZM118.817 65.3375L114.24 61.4579C110.303 66.1029 104.395 68.7875 95.5068 68.7875V74.7875V80.7875C107.018 80.7875 116.651 77.1721 123.394 69.2171L118.817 65.3375ZM95.5068 74.7875V68.7875C88.629 68.7875 83.9607 66.5908 80.6679 62.6566L76.0668 66.5075L71.4657 70.3584C77.413 77.4642 85.7046 80.7875 95.5068 80.7875V74.7875ZM76.0668 66.5075L80.6282 62.6096C78.6998 60.353 77.2975 57.2356 76.7006 52.9077L70.7568 53.7275L64.8131 54.5473C65.6562 60.6595 67.7938 66.062 71.5054 70.4054L76.0668 66.5075ZM70.7568 53.7275L76.6965 52.879C76.4932 51.4558 76.3968 50.1201 76.3968 48.8675H70.3968H64.3968C64.3968 50.7349 64.5404 52.6392 64.8171 54.576L70.7568 53.7275ZM70.3968 48.8675H76.3968C76.3968 42.1301 78.8143 37.64 83.4768 34.4885L80.1168 29.5175L76.7568 24.5465C68.4593 30.1551 64.3968 38.5649 64.3968 48.8675H70.3968ZM80.1168 29.5175L83.5362 34.4478C86.3523 32.4947 89.9194 31.1272 94.4275 30.5125L93.6168 24.5675L92.8062 18.6225C86.7542 19.4478 81.3214 21.3803 76.6974 24.5872L80.1168 29.5175ZM93.6168 24.5675L94.4098 30.5149C95.9583 30.3084 97.4633 30.2075 98.9268 30.2075V24.2075V18.2075C96.9104 18.2075 94.8753 18.3466 92.8238 18.6201L93.6168 24.5675ZM98.9268 24.2075V30.2075C103.914 30.2075 107.712 31.414 110.663 33.5095L114.137 28.6175L117.611 23.7255C112.282 19.9411 105.94 18.2075 98.9268 18.2075V24.2075ZM114.137 28.6175L110.707 33.5407C114.469 36.1615 116.906 40.103 117.733 46.089L123.677 45.2675L129.62 44.446C128.408 35.672 124.484 28.5135 117.566 23.6943L114.137 28.6175ZM105.137 47.8775L111.081 47.0616C110.567 43.3168 109.412 39.8323 107.359 36.8867L102.437 40.3175L97.5144 43.7483C98.2215 44.7627 98.8665 46.3182 99.1926 48.6934L105.137 47.8775ZM102.437 40.3175L107.374 36.9084C106.045 34.9831 104.298 33.292 102.041 32.2084C99.7493 31.1085 97.3061 30.8155 94.9108 31.1279L95.6868 37.0775L96.4629 43.0271C96.6651 43.0007 96.7725 43.0114 96.8077 43.0165C96.838 43.0208 96.8438 43.0247 96.8479 43.0266C96.8548 43.03 96.9118 43.0575 97.0169 43.1523C97.126 43.2507 97.2929 43.4275 97.4995 43.7267L102.437 40.3175ZM95.6868 37.0775L94.821 31.1403C92.4553 31.4853 90.1858 32.3737 88.2424 33.9638C86.3091 35.5456 84.9895 37.5831 84.1437 39.7916L89.7468 41.9375L95.35 44.0834C95.5841 43.472 95.7946 43.2894 95.8413 43.2513C95.8778 43.2213 96.0384 43.0897 96.5527 43.0147L95.6868 37.0775ZM89.7468 41.9375L84.1168 39.8633C82.8499 43.3018 82.6603 47.0656 83.1685 50.9131L89.1168 50.1275L95.0652 49.3419C94.7333 46.8294 94.9637 45.1332 95.3769 44.0117L89.7468 41.9375ZM89.1168 50.1275L83.1755 50.9643C83.8361 55.6548 85.1734 60.0795 87.8716 63.2975C90.9196 66.9327 95.1635 68.3892 99.7286 67.7737L98.9268 61.8275L98.1251 55.8813C97.5925 55.9531 97.3973 55.876 97.3887 55.8729C97.3741 55.8675 97.3523 55.8583 97.3136 55.8302C97.2722 55.8002 97.187 55.7305 97.067 55.5875C96.4952 54.9055 95.5975 53.1202 95.0582 49.2907L89.1168 50.1275ZM98.9268 61.8275L99.8208 67.7605C103.427 67.2172 106.661 65.4637 108.825 62.2625C110.844 59.2753 111.497 55.664 111.497 52.1075H105.497H99.4968C99.4968 54.371 99.0542 55.2898 98.8834 55.5425C98.8194 55.6372 98.7804 55.6645 98.7385 55.6893C98.6809 55.7235 98.4824 55.8267 98.0328 55.8945L98.9268 61.8275ZM105.497 52.1075H111.497C111.497 50.4771 111.342 48.7552 111.067 46.9652L105.137 47.8775L99.2066 48.7898C99.4112 50.1198 99.4968 51.2179 99.4968 52.1075H105.497ZM208.535 68.8475L209.169 74.8139L215.134 74.1799L214.501 68.2144L208.535 68.8475ZM189.905 70.8275L183.937 71.4487L184.56 77.4294L190.539 76.7939L189.905 70.8275ZM187.385 46.6175L193.353 45.9963L193.349 45.963L193.345 45.9298L187.385 46.6175ZM185.765 40.0475L180.497 42.9206L180.526 42.9728L180.555 43.0243L185.765 40.0475ZM180.095 37.5275L180.749 43.4918L180.757 43.4908L180.095 37.5275ZM174.605 48.6875L168.637 49.3049L168.638 49.3162L168.639 49.3275L174.605 48.6875ZM177.125 72.1775L177.73 78.1469L183.734 77.5378L183.091 71.5375L177.125 72.1775ZM158.495 74.0675L152.527 74.691L153.149 80.6406L159.1 80.0369L158.495 74.0675ZM155.975 49.9475L161.942 49.324L161.939 49.2919L161.935 49.2598L155.975 49.9475ZM154.355 43.3775L149.087 46.2506L149.116 46.3028L149.145 46.3543L154.355 43.3775ZM148.685 40.8575L149.339 46.8218L149.347 46.8208L148.685 40.8575ZM143.195 52.0175L137.227 52.6349L137.228 52.6474L137.229 52.6599L143.195 52.0175ZM145.715 75.4175L146.349 81.3839L152.324 80.7489L151.68 74.7751L145.715 75.4175ZM127.085 77.3975L121.117 78.0215L121.742 83.9991L127.719 83.3639L127.085 77.3975ZM122.135 30.0575L121.503 24.0908L115.544 24.7214L116.167 30.6815L122.135 30.0575ZM139.145 28.2575L145.105 27.5698L144.424 21.6654L138.513 22.2908L139.145 28.2575ZM139.955 35.2775L133.994 35.9653L136.305 55.993L145.321 37.9608L139.955 35.2775ZM147.965 27.2675L145.029 22.0346L145.022 22.0386L145.015 22.0426L147.965 27.2675ZM170.195 32.4875L164.978 35.4505L170.288 44.8015L175.456 35.3713L170.195 32.4875ZM185.405 22.0475L184.775 16.0807L184.766 16.0817L185.405 22.0475ZM202.685 29.6975L208.073 27.0583L208.062 27.0362L208.051 27.0142L202.685 29.6975ZM205.565 40.8575L211.531 40.2244L211.531 40.2211L205.565 40.8575ZM208.535 68.8475L207.901 62.8811L189.271 64.8611L189.905 70.8275L190.539 76.7939L209.169 74.8139L208.535 68.8475ZM189.905 70.8275L195.873 70.2063L193.353 45.9963L187.385 46.6175L181.417 47.2387L183.937 71.4487L189.905 70.8275ZM187.385 46.6175L193.345 45.9298C192.976 42.7258 192.346 39.4703 190.974 37.0707L185.765 40.0475L180.555 43.0243C180.532 42.9826 180.682 43.2527 180.884 44.0714C181.075 44.8455 181.263 45.9076 181.424 47.3053L187.385 46.6175ZM185.765 40.0475L191.032 37.1744C189.922 35.1382 188.234 33.4542 185.974 32.4496C183.798 31.4825 181.517 31.3325 179.432 31.5642L180.095 37.5275L180.757 43.4908C181.372 43.4225 181.387 43.5426 181.101 43.4154C180.954 43.3503 180.802 43.2508 180.672 43.1273C180.546 43.0081 180.497 42.9192 180.497 42.9206L185.765 40.0475ZM180.095 37.5275L179.441 31.5632C175.365 32.0099 171.941 34.1926 170.054 38.029C168.405 41.3794 168.232 45.3886 168.637 49.3049L174.605 48.6875L180.573 48.0701C180.258 45.0264 180.639 43.6956 180.821 43.326C180.868 43.2309 180.827 43.3449 180.649 43.465C180.486 43.5752 180.453 43.5241 180.748 43.4918L180.095 37.5275ZM174.605 48.6875L168.639 49.3275L171.159 72.8175L177.125 72.1775L183.091 71.5375L180.571 48.0475L174.605 48.6875ZM177.125 72.1775L176.519 66.2081L157.889 68.0981L158.495 74.0675L159.1 80.0369L177.73 78.1469L177.125 72.1775ZM158.495 74.0675L164.462 73.444L161.942 49.324L155.975 49.9475L150.007 50.571L152.527 74.691L158.495 74.0675ZM155.975 49.9475L161.935 49.2598C161.566 46.0558 160.936 42.8002 159.564 40.4007L154.355 43.3775L149.145 46.3543C149.122 46.3126 149.272 46.5827 149.474 47.4014C149.665 48.1755 149.853 49.2376 150.014 50.6353L155.975 49.9475ZM154.355 43.3775L159.622 40.5044C158.512 38.4682 156.824 36.7842 154.564 35.7796C152.388 34.8125 150.107 34.6625 148.022 34.8942L148.685 40.8575L149.347 46.8208C149.962 46.7525 149.977 46.8726 149.691 46.7454C149.544 46.6803 149.392 46.5807 149.262 46.4574C149.136 46.3381 149.087 46.2492 149.087 46.2506L154.355 43.3775ZM148.685 40.8575L148.031 34.8932C143.955 35.3399 140.531 37.5226 138.644 41.359C136.995 44.7094 136.822 48.7186 137.227 52.6349L143.195 52.0175L149.163 51.4001C148.848 48.3564 149.229 47.0256 149.411 46.656C149.458 46.5609 149.417 46.6749 149.239 46.795C149.076 46.9052 149.043 46.8541 149.339 46.8218L148.685 40.8575ZM143.195 52.0175L137.229 52.6599L139.749 76.0599L145.715 75.4175L151.68 74.7751L149.16 51.3751L143.195 52.0175ZM145.715 75.4175L145.081 69.4511L126.451 71.4311L127.085 77.3975L127.719 83.3639L146.349 81.3839L145.715 75.4175ZM127.085 77.3975L133.052 76.7735L128.102 29.4335L122.135 30.0575L116.167 30.6815L121.117 78.0215L127.085 77.3975ZM122.135 30.0575L122.766 36.0242L139.776 34.2242L139.145 28.2575L138.513 22.2908L121.503 24.0908L122.135 30.0575ZM139.145 28.2575L133.184 28.9453L133.994 35.9653L139.955 35.2775L145.915 34.5898L145.105 27.5698L139.145 28.2575ZM139.955 35.2775L145.321 37.9608C146.317 35.9702 148.045 34.1125 150.914 32.4925L147.965 27.2675L145.015 22.0426C140.445 24.6225 136.833 28.1049 134.588 32.5942L139.955 35.2775ZM147.965 27.2675L150.9 32.5004C152.292 31.72 154.176 31.1975 156.785 31.1975V25.1975V19.1975C152.554 19.1975 148.558 20.055 145.029 22.0346L147.965 27.2675ZM156.785 25.1975V31.1975C161.083 31.1975 163.414 32.697 164.978 35.4505L170.195 32.4875L175.412 29.5246C171.456 22.558 164.846 19.1975 156.785 19.1975V25.1975ZM170.195 32.4875L175.456 35.3713C177.992 30.7452 181.395 28.5114 186.044 28.0134L185.405 22.0475L184.766 16.0817C175.974 17.0236 169.238 21.7498 164.933 29.6038L170.195 32.4875ZM185.405 22.0475L186.035 28.0143C189.612 27.6365 192.051 28.0475 193.686 28.7714C195.204 29.4435 196.398 30.5409 197.318 32.3808L202.685 29.6975L208.051 27.0142C205.971 22.8541 202.785 19.6765 198.544 17.7986C194.419 15.9725 189.718 15.5585 184.775 16.0807L185.405 22.0475ZM202.685 29.6975L197.297 32.3367C198.336 34.458 199.167 37.4432 199.599 41.4939L205.565 40.8575L211.531 40.2211C211.003 35.2719 209.914 30.817 208.073 27.0583L202.685 29.6975ZM205.565 40.8575L199.598 41.4906L202.568 69.4806L208.535 68.8475L214.501 68.2144L211.531 40.2244L205.565 40.8575ZM290.976 68.8475L291.61 74.8139L297.576 74.1799L296.943 68.2144L290.976 68.8475ZM272.346 70.8275L266.379 71.4487L267.001 77.4294L272.98 76.7939L272.346 70.8275ZM269.826 46.6175L275.794 45.9963L275.791 45.963L275.787 45.9298L269.826 46.6175ZM268.206 40.0475L262.939 42.9206L262.967 42.9728L262.997 43.0243L268.206 40.0475ZM262.536 37.5275L263.19 43.4918L263.199 43.4908L262.536 37.5275ZM257.046 48.6875L251.078 49.3049L251.079 49.3162L251.081 49.3275L257.046 48.6875ZM259.566 72.1775L260.172 78.1469L266.176 77.5378L265.532 71.5375L259.566 72.1775ZM240.936 74.0675L234.969 74.691L235.59 80.6406L241.542 80.0369L240.936 74.0675ZM238.416 49.9475L244.384 49.324L244.38 49.2919L244.377 49.2598L238.416 49.9475ZM236.796 43.3775L231.529 46.2506L231.557 46.3028L231.587 46.3543L236.796 43.3775ZM231.126 40.8575L231.78 46.8218L231.789 46.8208L231.126 40.8575ZM225.636 52.0175L219.668 52.6349L219.669 52.6474L219.671 52.6599L225.636 52.0175ZM228.156 75.4175L228.79 81.3839L234.765 80.7489L234.122 74.7751L228.156 75.4175ZM209.526 77.3975L203.559 78.0215L204.184 83.9991L210.16 83.3639L209.526 77.3975ZM204.576 30.0575L203.945 24.0908L197.986 24.7214L198.609 30.6815L204.576 30.0575ZM221.586 28.2575L227.547 27.5698L226.865 21.6654L220.955 22.2908L221.586 28.2575ZM222.396 35.2775L216.436 35.9653L218.747 55.993L227.763 37.9608L222.396 35.2775ZM230.406 27.2675L227.471 22.0346L227.464 22.0386L227.457 22.0426L230.406 27.2675ZM252.636 32.4875L247.419 35.4505L252.729 44.8015L257.898 35.3713L252.636 32.4875ZM267.846 22.0475L267.216 16.0807L267.207 16.0817L267.846 22.0475ZM285.126 29.6975L290.515 27.0583L290.504 27.0362L290.493 27.0142L285.126 29.6975ZM288.006 40.8575L293.973 40.2244L293.972 40.2211L288.006 40.8575ZM290.976 68.8475L290.342 62.8811L271.712 64.8611L272.346 70.8275L272.98 76.7939L291.61 74.8139L290.976 68.8475ZM272.346 70.8275L278.314 70.2063L275.794 45.9963L269.826 46.6175L263.859 47.2387L266.379 71.4487L272.346 70.8275ZM269.826 46.6175L275.787 45.9298C275.417 42.7258 274.787 39.4703 273.416 37.0707L268.206 40.0475L262.997 43.0243C262.973 42.9826 263.124 43.2527 263.326 44.0714C263.517 44.8455 263.705 45.9076 263.866 47.3053L269.826 46.6175ZM268.206 40.0475L273.474 37.1744C272.363 35.1382 270.676 33.4542 268.416 32.4496C266.239 31.4825 263.959 31.3325 261.874 31.5642L262.536 37.5275L263.199 43.4908C263.814 43.4225 263.828 43.5426 263.542 43.4154C263.396 43.3503 263.243 43.2508 263.113 43.1273C262.987 43.0081 262.938 42.9192 262.939 42.9206L268.206 40.0475ZM262.536 37.5275L261.883 31.5632C257.807 32.0099 254.382 34.1926 252.495 38.029C250.847 41.3794 250.673 45.3886 251.078 49.3049L257.046 48.6875L263.014 48.0701C262.7 45.0264 263.081 43.6956 263.263 43.326C263.309 43.2309 263.268 43.3449 263.091 43.465C262.928 43.5752 262.895 43.5241 263.19 43.4918L262.536 37.5275ZM257.046 48.6875L251.081 49.3275L253.601 72.8175L259.566 72.1775L265.532 71.5375L263.012 48.0475L257.046 48.6875ZM259.566 72.1775L258.961 66.2081L240.331 68.0981L240.936 74.0675L241.542 80.0369L260.172 78.1469L259.566 72.1775ZM240.936 74.0675L246.904 73.444L244.384 49.324L238.416 49.9475L232.449 50.571L234.969 74.691L240.936 74.0675ZM238.416 49.9475L244.377 49.2598C244.007 46.0558 243.377 42.8002 242.006 40.4007L236.796 43.3775L231.587 46.3543C231.563 46.3126 231.714 46.5827 231.916 47.4014C232.107 48.1755 232.295 49.2376 232.456 50.6353L238.416 49.9475ZM236.796 43.3775L242.064 40.5044C240.953 38.4682 239.266 36.7842 237.006 35.7796C234.829 34.8125 232.549 34.6625 230.464 34.8942L231.126 40.8575L231.789 46.8208C232.404 46.7525 232.418 46.8726 232.132 46.7454C231.986 46.6803 231.833 46.5807 231.703 46.4574C231.577 46.3381 231.528 46.2492 231.529 46.2506L236.796 43.3775ZM231.126 40.8575L230.473 34.8932C226.397 35.3399 222.972 37.5226 221.085 41.359C219.437 44.7094 219.263 48.7186 219.668 52.6349L225.636 52.0175L231.604 51.4001C231.29 48.3564 231.671 47.0256 231.853 46.656C231.899 46.5609 231.858 46.6749 231.681 46.795C231.518 46.9052 231.485 46.8541 231.78 46.8218L231.126 40.8575ZM225.636 52.0175L219.671 52.6599L222.191 76.0599L228.156 75.4175L234.122 74.7751L231.602 51.3751L225.636 52.0175ZM228.156 75.4175L227.522 69.4511L208.892 71.4311L209.526 77.3975L210.16 83.3639L228.79 81.3839L228.156 75.4175ZM209.526 77.3975L215.494 76.7735L210.544 29.4335L204.576 30.0575L198.609 30.6815L203.559 78.0215L209.526 77.3975ZM204.576 30.0575L205.208 36.0242L222.218 34.2242L221.586 28.2575L220.955 22.2908L203.945 24.0908L204.576 30.0575ZM221.586 28.2575L215.626 28.9453L216.436 35.9653L222.396 35.2775L228.357 34.5898L227.547 27.5698L221.586 28.2575ZM222.396 35.2775L227.763 37.9608C228.758 35.9702 230.486 34.1125 233.356 32.4925L230.406 27.2675L227.457 22.0426C222.886 24.6225 219.274 28.1049 217.03 32.5942L222.396 35.2775ZM230.406 27.2675L233.342 32.5004C234.733 31.72 236.617 31.1975 239.226 31.1975V25.1975V19.1975C234.996 19.1975 231 20.055 227.471 22.0346L230.406 27.2675ZM239.226 25.1975V31.1975C243.525 31.1975 245.855 32.697 247.419 35.4505L252.636 32.4875L257.854 29.5246C253.897 22.558 247.288 19.1975 239.226 19.1975V25.1975ZM252.636 32.4875L257.898 35.3713C260.433 30.7452 263.837 28.5114 268.485 28.0134L267.846 22.0475L267.207 16.0817C258.416 17.0236 251.679 21.7498 247.375 29.6038L252.636 32.4875ZM267.846 22.0475L268.477 28.0143C272.053 27.6365 274.492 28.0475 276.127 28.7714C277.646 29.4435 278.84 30.5409 279.76 32.3808L285.126 29.6975L290.493 27.0142C288.413 22.8541 285.227 19.6765 280.985 17.7986C276.86 15.9725 272.159 15.5585 267.216 16.0807L267.846 22.0475ZM285.126 29.6975L279.738 32.3367C280.777 34.458 281.608 37.4432 282.04 41.4939L288.006 40.8575L293.972 40.2211C293.445 35.2719 292.356 30.817 290.515 27.0583L285.126 29.6975ZM288.006 40.8575L282.04 41.4906L285.01 69.4806L290.976 68.8475L296.943 68.2144L293.973 40.2244L288.006 40.8575ZM317.078 9.35751L323.034 10.0834L323.758 4.13951L317.816 3.40305L317.078 9.35751ZM309.158 74.3375L308.42 80.292L314.386 81.0314L315.114 75.0634L309.158 74.3375ZM288.098 71.7275L282.142 71.0016L281.417 76.9455L287.36 77.682L288.098 71.7275ZM296.018 6.74751L296.756 0.79306L290.789 0.053627L290.062 6.02158L296.018 6.74751ZM317.078 9.35751L311.122 8.63158L303.202 73.6116L309.158 74.3375L315.114 75.0634L323.034 10.0834L317.078 9.35751ZM309.158 74.3375L309.896 68.3831L288.836 65.7731L288.098 71.7275L287.36 77.682L308.42 80.292L309.158 74.3375ZM288.098 71.7275L294.054 72.4534L301.974 7.47343L296.018 6.74751L290.062 6.02158L282.142 71.0016L288.098 71.7275ZM296.018 6.74751L295.28 12.702L316.34 15.312L317.078 9.35751L317.816 3.40305L296.756 0.79306L296.018 6.74751ZM352.54 27.8975L358.494 28.6417L359.241 22.6658L353.262 21.9411L352.54 27.8975ZM351.19 38.6975L350.409 44.6464L356.395 45.4325L357.144 39.4417L351.19 38.6975ZM342.28 37.5275L343.062 31.5786L337.08 30.793L336.327 36.7795L342.28 37.5275ZM340.12 54.7175L334.167 53.9695L334.165 53.986L334.163 54.0026L340.12 54.7175ZM340.12 58.3175L346.02 57.225L346.012 57.1828L346.004 57.1408L340.12 58.3175ZM345.25 61.3775L344.45 67.3239L344.489 67.3291L344.529 67.3339L345.25 61.3775ZM348.22 61.7375L354.177 62.4619L354.901 56.5034L348.942 55.7811L348.22 61.7375ZM346.6 75.0575L346.306 81.0503L351.883 81.3245L352.557 75.7819L346.6 75.0575ZM335.98 74.1575L336.712 68.2022L336.697 68.2004L336.682 68.1986L335.98 74.1575ZM326.98 72.2675L324.701 77.8176L324.712 77.822L324.722 77.8263L326.98 72.2675ZM321.13 65.9675L327.023 64.8391L327.007 64.7522L326.988 64.6659L321.13 65.9675ZM321.31 55.0775L327.255 55.8882L327.263 55.835L327.269 55.7817L321.31 55.0775ZM323.651 35.2775L329.609 35.9817L330.31 30.0531L324.385 29.3226L323.651 35.2775ZM317.081 34.4675L311.127 33.7233L310.381 39.687L316.346 40.4224L317.081 34.4675ZM318.431 23.6675L319.213 17.7188L313.226 16.931L312.477 22.9233L318.431 23.6675ZM325.271 24.5675L324.488 30.5162L330.493 31.3064L331.226 25.2938L325.271 24.5675ZM327.07 9.8075L327.8 3.85206L321.841 3.1218L321.115 9.08118L327.07 9.8075ZM345.431 12.0575L351.386 12.7838L352.112 6.83147L346.16 6.10206L345.431 12.0575ZM343.63 26.8175L337.675 26.0912L336.948 32.0514L342.909 32.7739L343.63 26.8175ZM352.54 27.8975L346.587 27.1533L345.237 37.9533L351.19 38.6975L357.144 39.4417L358.494 28.6417L352.54 27.8975ZM351.19 38.6975L351.972 32.7486L343.062 31.5786L342.28 37.5275L341.499 43.4764L350.409 44.6464L351.19 38.6975ZM342.28 37.5275L336.327 36.7795L334.167 53.9695L340.12 54.7175L346.074 55.4655L348.234 38.2756L342.28 37.5275ZM340.12 54.7175L334.163 54.0026C333.95 55.7813 333.878 57.6997 334.237 59.4942L340.12 58.3175L346.004 57.1408C346.011 57.1753 345.986 57.0605 345.986 56.7425C345.986 56.4332 346.009 56.0028 346.078 55.4324L340.12 54.7175ZM340.12 58.3175L334.221 59.41C334.75 62.2681 336.554 64.2574 338.554 65.4504C340.392 66.5468 342.501 67.0615 344.45 67.3239L345.25 61.3775L346.051 55.4311C345.508 55.358 345.131 55.2722 344.889 55.2001C344.642 55.1264 344.607 55.0882 344.702 55.1446C344.804 55.2056 345.088 55.3964 345.384 55.7854C345.697 56.1975 345.923 56.6995 346.02 57.225L340.12 58.3175ZM345.25 61.3775L344.529 67.3339L347.499 67.6939L348.22 61.7375L348.942 55.7811L345.972 55.4211L345.25 61.3775ZM348.22 61.7375L342.264 61.0131L340.644 74.3331L346.6 75.0575L352.557 75.7819L354.177 62.4619L348.22 61.7375ZM346.6 75.0575L346.895 69.0648C343.372 68.8915 339.978 68.6034 336.712 68.2022L335.98 74.1575L335.249 80.1128C338.823 80.5517 342.509 80.8635 346.306 81.0503L346.6 75.0575ZM335.98 74.1575L336.682 68.1986C332.721 67.7326 330.382 67.1732 329.239 66.7087L326.98 72.2675L324.722 77.8263C327.419 78.9219 331.08 79.6224 335.279 80.1164L335.98 74.1575ZM326.98 72.2675L329.26 66.7174C327.211 65.8758 327.081 65.1382 327.023 64.8391L321.13 65.9675L315.238 67.0959C316.26 72.4368 320.03 75.8993 324.701 77.8176L326.98 72.2675ZM321.13 65.9675L326.988 64.6659C326.875 64.1604 326.771 63.2818 326.771 61.9175H320.771H314.771C314.771 63.7932 314.906 65.6146 315.273 67.2691L321.13 65.9675ZM320.771 61.9175H326.771C326.771 60.3499 326.919 58.3542 327.255 55.8882L321.31 55.0775L315.366 54.2668C314.982 57.0808 314.771 59.6452 314.771 61.9175H320.771ZM321.31 55.0775L327.269 55.7817L329.609 35.9817L323.651 35.2775L317.692 34.5733L315.352 54.3733L321.31 55.0775ZM323.651 35.2775L324.385 29.3226L317.815 28.5126L317.081 34.4675L316.346 40.4224L322.916 41.2324L323.651 35.2775ZM317.081 34.4675L323.034 35.2117L324.384 24.4117L318.431 23.6675L312.477 22.9233L311.127 33.7233L317.081 34.4675ZM318.431 23.6675L317.648 29.6162L324.488 30.5162L325.271 24.5675L326.053 18.6188L319.213 17.7188L318.431 23.6675ZM325.271 24.5675L331.226 25.2938L333.026 10.5338L327.07 9.8075L321.115 9.08118L319.315 23.8412L325.271 24.5675ZM327.07 9.8075L326.341 15.763L344.701 18.013L345.431 12.0575L346.16 6.10206L327.8 3.85206L327.07 9.8075ZM345.431 12.0575L339.475 11.3312L337.675 26.0912L343.63 26.8175L349.586 27.5438L351.386 12.7838L345.431 12.0575ZM343.63 26.8175L342.909 32.7739L351.819 33.8539L352.54 27.8975L353.262 21.9411L344.352 20.8611L343.63 26.8175Z" fill="url(#paint0_linear_223_61)" mask="url(#path-1-outside-1_223_61)"/>
<defs>
<linearGradient id="paint0_linear_223_61" x1="4.14136" y1="39.7575" x2="350.141" y2="39.7575" gradientUnits="userSpaceOnUse">
<stop stop-color="#BDB2FF"/>
<stop offset="1" stop-color="#FFC6FF"/>
</linearGradient>
</defs>
</svg>
